<svg width="90" height="49" fill="none" xmlns="http://www.w3.org/2000/svg"><mask id="a" maskUnits="userSpaceOnUse" x="0" y="0" width="29" height="49"><path d="M0 0h28.505v48.375H0V0z" fill="#BDBDBD"/></mask><g mask="url(#a)"><path fill-rule="evenodd" clip-rule="evenodd" d="M15.344 2.554c-.6-.6-1.585-.6-2.184 0-.6.6-.6 1.585 0 2.184.6.6 1.584.6 2.184 0 .6-.6.6-1.584 0-2.184zm4.049 11.04H9.11c-1.93 0-3.685.79-4.959 2.064a7.023 7.023 0 000 9.919 7 7 0 004.959 2.064h10.282a7 7 0 004.958-2.064 7.023 7.023 0 000-9.92 6.999 6.999 0 00-4.958-2.063zm-9.157 5.936c-.6-.6-1.585-.6-2.184 0-.6.6-.6 1.584 0 2.184.6.6 1.584.6 2.184 0 .6-.6.6-1.585 0-2.184zm1.49-1.49a3.667 3.667 0 010 5.164 3.665 3.665 0 01-5.164 0 3.667 3.667 0 010-5.164 3.665 3.665 0 015.164 0zm8.726 1.48c-.6-.6-1.585-.6-2.184 0-.6.6-.6 1.585 0 2.185.6.6 1.584.6 2.184 0 .6-.6.6-1.585 0-2.184zm1.49-1.49a3.667 3.667 0 010 5.165 3.665 3.665 0 01-5.164 0 3.667 3.667 0 010-5.164 3.665 3.665 0 015.163 0zm-3.185 11.733H9.79a6.175 6.175 0 00-4.375 1.821 6.177 6.177 0 00-1.82 4.375c0 2.827 1.157 5.398 3.021 7.263 4.06 4.061 11.253 4.061 15.313 0a10.253 10.253 0 003.021-7.263 6.177 6.177 0 00-1.82-4.375 6.175 6.175 0 00-4.374-1.82zm-15.739 1.43a8.358 8.358 0 012.349-2.252 9.195 9.195 0 01-2.704-1.874c-3.553-3.553-3.553-9.346 0-12.9a9.1 9.1 0 016.448-2.68h10.282a9.1 9.1 0 016.448 2.68c3.552 3.554 3.552 9.347 0 12.9a9.2 9.2 0 01-2.679 1.862 8.389 8.389 0 012.38 2.258c.67.904 1.075 2.106 1.075 2.106a8.24 8.24 0 01.441 2.666c0 3.41-1.393 6.507-3.638 8.753-4.883 4.884-13.41 4.884-18.293 0a12.355 12.355 0 01-3.638-8.753c0-.931.155-1.828.441-2.666 0 0 .542-1.31 1.088-2.1zm13.816-30.13a3.666 3.666 0 010 5.165c-.421.421-.944.74-1.529.916v3.32h-2.107v-3.32a3.649 3.649 0 01-1.528-.916 3.667 3.667 0 010-5.164 3.665 3.665 0 015.164 0z" fill="#BDBDBD"/></g><path fill-rule="evenodd" clip-rule="evenodd" d="M38.266 13.602v2.438h2.003c.438 0 .762-.114.973-.34.21-.227.316-.516.316-.867 0-.82-.43-1.23-1.289-1.23h-2.003zm2.132-2.132c1.117 0 1.966.314 2.548.943.582.629.873 1.428.873 2.396 0 .664-.152 1.268-.457 1.81a2.879 2.879 0 01-1.347 1.225l1.98 2.765h-2.8L39.46 18.16h-1.195v2.45h-2.331v-9.14h4.463zM50.262 17.797c.484.484 1.07.726 1.758.726.702 0 1.292-.24 1.768-.72.477-.48.715-1.068.715-1.764 0-.695-.238-1.283-.715-1.763-.476-.48-1.066-.72-1.768-.72-.688 0-1.274.242-1.758.726a2.395 2.395 0 00-.726 1.757c0 .688.242 1.274.726 1.758zm-1.657-5.109c.956-.93 2.095-1.394 3.415-1.394 1.335 0 2.477.465 3.426 1.394.949.93 1.423 2.047 1.423 3.351 0 1.305-.474 2.422-1.423 3.352-.949.93-2.091 1.394-3.426 1.394-1.32 0-2.459-.465-3.415-1.394-.957-.93-1.435-2.047-1.435-3.352 0-1.304.478-2.421 1.435-3.35zM62.88 16.883v1.605h2.342c.578 0 .867-.273.867-.82 0-.523-.289-.785-.867-.785H62.88zm0-3.28v1.452h1.932c.578 0 .867-.242.867-.726 0-.227-.062-.404-.187-.533-.125-.13-.309-.194-.55-.194H62.88zm-2.344-2.133h4.546c.953 0 1.685.23 2.196.691.512.46.768 1.07.768 1.828 0 .875-.371 1.515-1.113 1.922 1.015.382 1.523 1.09 1.523 2.12 0 .766-.268 1.387-.803 1.864-.535.476-1.26.714-2.173.714h-4.944v-9.14zM74.817 17.797c.485.484 1.07.726 1.757.726.703 0 1.293-.24 1.77-.72.476-.48.714-1.068.714-1.764 0-.695-.238-1.283-.715-1.763-.476-.48-1.066-.72-1.769-.72-.687 0-1.272.242-1.757.726a2.395 2.395 0 00-.726 1.757c0 .688.242 1.274.726 1.758zm-1.657-5.109c.956-.93 2.094-1.394 3.414-1.394 1.336 0 2.478.465 3.427 1.394.949.93 1.423 2.047 1.423 3.351 0 1.305-.474 2.422-1.423 3.352-.949.93-2.091 1.394-3.427 1.394-1.32 0-2.458-.465-3.415-1.394-.956-.93-1.434-2.047-1.434-3.352 0-1.304.478-2.421 1.434-3.35zM37.856 31.468v.058c0 .203.135.393.404.568.27.176.65.264 1.142.264.407 0 .701-.055.885-.164.183-.11.275-.242.275-.399 0-.187-.115-.351-.345-.492-.23-.14-.635-.308-1.213-.503a28.023 28.023 0 01-.92-.328 7.62 7.62 0 01-.878-.417 3.609 3.609 0 01-.814-.574 2.705 2.705 0 01-.528-.755 2.244 2.244 0 01-.222-.996c0-.86.332-1.547.996-2.063.663-.515 1.523-.773 2.577-.773 1.085 0 1.98.27 2.683.809.703.539 1.054 1.253 1.054 2.144v.129h-2.285v-.082c0-.25-.122-.475-.369-.674-.245-.2-.591-.299-1.036-.299-.367 0-.645.06-.832.182-.187.12-.281.267-.281.44 0 .171.105.317.316.439.211.12.61.283 1.195.486l.598.217c.14.05.349.136.626.257.278.122.498.235.662.34.164.106.355.246.574.422.219.176.389.354.51.533.12.18.226.395.316.645s.135.511.135.785c0 .867-.336 1.537-1.008 2.01-.671.472-1.546.708-2.624.708-1.132 0-2.062-.25-2.788-.75s-1.09-1.187-1.09-2.062v-.105h2.285zM49.161 27.202v2.8h1.558c.898 0 1.347-.472 1.347-1.417 0-.398-.109-.728-.328-.99-.218-.262-.558-.393-1.019-.393h-1.558zm-2.343-2.132h4.03c1.148 0 2.032.338 2.654 1.013.62.676.93 1.506.93 2.49 0 1.024-.308 1.873-.925 2.549-.617.676-1.503 1.013-2.66 1.013h-1.686v2.074h-2.343v-9.14zM60.689 31.397c.484.485 1.07.727 1.757.727.703 0 1.292-.24 1.769-.721.476-.48.715-1.068.715-1.763 0-.696-.239-1.284-.715-1.764-.477-.48-1.066-.72-1.77-.72-.686 0-1.272.242-1.756.726a2.395 2.395 0 00-.727 1.758c0 .687.242 1.273.727 1.757zm-1.658-5.109c.957-.93 2.095-1.394 3.415-1.394 1.335 0 2.478.465 3.426 1.394.95.93 1.424 2.047 1.424 3.352 0 1.304-.475 2.421-1.424 3.35-.948.93-2.09 1.395-3.426 1.395-1.32 0-2.458-.465-3.415-1.394-.957-.93-1.435-2.047-1.435-3.351 0-1.305.478-2.422 1.435-3.352zM73.294 27.202v2.438h2.004c.437 0 .76-.114.972-.34.21-.227.316-.516.316-.867 0-.82-.43-1.23-1.288-1.23h-2.004zm2.132-2.132c1.117 0 1.966.314 2.548.943.582.629.873 1.428.873 2.396 0 .664-.152 1.268-.457 1.81a2.878 2.878 0 01-1.347 1.225l1.98 2.765h-2.8l-1.734-2.449h-1.195v2.45h-2.331v-9.14h4.463zM81.963 25.07H90v2.273h-2.847v6.866H84.81v-6.866h-2.847V25.07zM44.686 45.36a4.777 4.777 0 01-1.775 1.904c-.777.48-1.63.72-2.56.72-1.32 0-2.458-.464-3.415-1.394-.956-.93-1.435-2.046-1.435-3.35 0-1.305.479-2.422 1.435-3.352.957-.93 2.096-1.394 3.415-1.394.93 0 1.78.238 2.548.714a4.871 4.871 0 011.775 1.887l-2.132.96a2.46 2.46 0 00-.902-.943 2.426 2.426 0 00-1.289-.357c-.687 0-1.273.242-1.757.726a2.394 2.394 0 00-.726 1.758c0 .688.242 1.274.726 1.758s1.07.726 1.757.726a2.448 2.448 0 002.191-1.3l2.144.937zM48.2 38.67h2.332v6.877h4.381v2.262h-6.712v-9.14zM66.546 38.67v5.143c0 1.219-.37 2.219-1.113 3-.742.781-1.772 1.172-3.092 1.172-1.328 0-2.359-.389-3.093-1.166-.734-.777-1.101-1.78-1.101-3.006V38.67h2.343v5.004c0 .664.156 1.171.468 1.523.313.352.774.527 1.383.527s1.074-.175 1.394-.527c.32-.352.48-.86.48-1.523v-5.004h2.331zM72.861 44.083v1.605h2.343c.578 0 .867-.273.867-.82 0-.523-.289-.785-.867-.785h-2.343zm0-3.281v1.453h1.933c.578 0 .867-.242.867-.727 0-.226-.063-.404-.188-.533-.124-.129-.308-.193-.55-.193H72.86zm-2.343-2.133h4.546c.952 0 1.685.23 2.196.692.512.46.767 1.07.767 1.828 0 .875-.37 1.515-1.113 1.921 1.016.383 1.523 1.09 1.523 2.121 0 .766-.267 1.387-.802 1.863-.535.477-1.26.715-2.173.715h-4.944v-9.14z" fill="#BDBDBD"/></svg>