<svg width="179" height="96" fill="none" xmlns="http://www.w3.org/2000/svg"><mask id="a" maskUnits="userSpaceOnUse" x="0" y="0" width="57" height="96"><path d="M0 0h56.588v96H0V0z" fill="#fff"/></mask><g mask="url(#a)"><path fill-rule="evenodd" clip-rule="evenodd" d="M30.46 5.068a3.078 3.078 0 00-4.335 0 3.077 3.077 0 000 4.335 3.078 3.078 0 004.335 0 3.077 3.077 0 000-4.335zm8.038 21.909H18.087c-3.832 0-7.316 1.569-9.844 4.096-5.427 5.427-5.427 14.258 0 19.684 2.528 2.528 6.012 4.096 9.844 4.096h20.41c3.832 0 7.317-1.568 9.844-4.096 5.428-5.426 5.428-14.257 0-19.684-2.527-2.527-6.012-4.096-9.843-4.096zM20.32 38.757a3.078 3.078 0 00-4.335 0 3.077 3.077 0 000 4.335 3.078 3.078 0 004.335 0 3.077 3.077 0 000-4.335zm2.957-2.957c2.816 2.814 2.816 7.434 0 10.249-2.815 2.815-7.435 2.815-10.25 0-2.815-2.815-2.815-7.435 0-10.25 2.815-2.814 7.435-2.814 10.25 0zM40.6 38.739a3.078 3.078 0 00-4.335 0 3.077 3.077 0 000 4.335 3.079 3.079 0 004.335 0 3.077 3.077 0 000-4.335zm2.958-2.957c2.815 2.814 2.815 7.434 0 10.249-2.815 2.815-7.436 2.815-10.25 0-2.816-2.815-2.816-7.435 0-10.25 2.814-2.814 7.435-2.814 10.25 0zm-6.322 23.284h-17.8c-3.38 0-6.454 1.383-8.683 3.613-2.23 2.23-3.615 5.303-3.615 8.683 0 5.61 2.297 10.711 5.998 14.411 8.06 8.06 22.339 8.06 30.4 0 3.7-3.7 5.997-8.801 5.997-14.411 0-3.38-1.384-6.453-3.614-8.683-2.23-2.23-5.304-3.614-8.683-3.614zM5.992 61.903c1.253-1.776 2.826-3.308 4.662-4.47a18.254 18.254 0 01-5.368-3.719c-7.052-7.05-7.052-18.547 0-25.598 3.284-3.284 7.815-5.321 12.8-5.321h20.412c4.986 0 9.517 2.037 12.8 5.32 7.053 7.052 7.053 18.548 0 25.6a18.258 18.258 0 01-5.317 3.695 16.65 16.65 0 014.723 4.48c1.331 1.795 2.136 4.18 2.136 4.18.568 1.662.876 3.443.876 5.292 0 6.764-2.766 12.913-7.223 17.368-9.694 9.694-26.62 9.694-36.315 0-4.456-4.456-7.222-10.604-7.222-17.368 0-1.85.308-3.63.876-5.292 0 0 1.075-2.601 2.16-4.167zM33.418 2.11c2.815 2.815 2.815 7.435 0 10.25a7.243 7.243 0 01-3.034 1.816v6.59H26.2v-6.59a7.245 7.245 0 01-3.034-1.817c-2.815-2.814-2.815-7.434 0-10.249 2.815-2.815 7.436-2.815 10.25 0z" fill="#009FC3"/></g><path fill-rule="evenodd" clip-rule="evenodd" d="M75.965 26.994v4.837h3.977c.868 0 1.512-.225 1.93-.675.419-.45.628-1.023.628-1.72 0-1.628-.853-2.442-2.558-2.442h-3.977zm4.233-4.232c2.217 0 3.903.624 5.058 1.872 1.155 1.248 1.733 2.833 1.733 4.755 0 1.317-.303 2.515-.907 3.592-.605 1.078-1.497 1.888-2.675 2.43l3.93 5.488H81.78l-3.442-4.86h-2.372v4.86h-4.628V22.762h8.86zM99.78 35.318c.961.962 2.124 1.442 3.488 1.442 1.396 0 2.566-.477 3.512-1.43.946-.953 1.419-2.12 1.419-3.5s-.473-2.546-1.419-3.499c-.946-.953-2.116-1.43-3.512-1.43-1.364 0-2.527.48-3.488 1.442-.961.96-1.442 2.123-1.442 3.488 0 1.364.48 2.526 1.442 3.487zM96.49 25.18c1.898-1.845 4.158-2.767 6.778-2.767 2.651 0 4.919.922 6.803 2.767 1.883 1.845 2.825 4.062 2.825 6.65 0 2.59-.942 4.806-2.825 6.65-1.884 1.846-4.152 2.768-6.803 2.768-2.62 0-4.88-.922-6.779-2.767-1.9-1.845-2.849-4.062-2.849-6.65 0-2.59.95-4.806 2.85-6.65zM124.827 33.505v3.185h4.652c1.147 0 1.721-.542 1.721-1.627 0-1.039-.574-1.558-1.721-1.558h-4.652zm0-6.511v2.883h3.838c1.147 0 1.721-.48 1.721-1.441 0-.45-.124-.803-.372-1.058-.248-.256-.613-.384-1.093-.384h-4.094zm-4.651-4.232h9.024c1.891 0 3.345.457 4.36 1.372 1.016.914 1.523 2.123 1.523 3.627 0 1.736-.736 3.008-2.209 3.814 2.016.76 3.023 2.162 3.023 4.208 0 1.52-.531 2.752-1.593 3.698-1.062.945-2.5 1.418-4.314 1.418h-9.814V22.762zM148.526 35.318c.961.962 2.124 1.442 3.488 1.442 1.396 0 2.566-.477 3.512-1.43.946-.953 1.419-2.12 1.419-3.5s-.473-2.546-1.419-3.499c-.946-.953-2.116-1.43-3.512-1.43-1.364 0-2.527.48-3.488 1.442-.961.96-1.442 2.123-1.442 3.488 0 1.364.481 2.526 1.442 3.487zm-3.291-10.138c1.9-1.845 4.159-2.767 6.779-2.767 2.652 0 4.919.922 6.803 2.767 1.884 1.845 2.826 4.062 2.826 6.65 0 2.59-.942 4.806-2.826 6.65-1.884 1.846-4.151 2.768-6.803 2.768-2.62 0-4.879-.922-6.779-2.767-1.899-1.845-2.849-4.062-2.849-6.65 0-2.59.95-4.806 2.849-6.65z" fill="#FFFFFE"/><path fill-rule="evenodd" clip-rule="evenodd" d="M75.151 62.447v.116c0 .403.268.779.803 1.128.535.349 1.29.523 2.267.523.806 0 1.391-.108 1.756-.326.364-.217.546-.48.546-.79 0-.372-.228-.698-.686-.977-.457-.279-1.26-.612-2.407-1a55.376 55.376 0 01-1.825-.65 15.09 15.09 0 01-1.745-.826c-.674-.364-1.213-.744-1.616-1.14-.403-.395-.752-.895-1.046-1.5a4.454 4.454 0 01-.442-1.976c0-1.705.659-3.07 1.977-4.093 1.317-1.023 3.023-1.534 5.116-1.534 2.155 0 3.93.535 5.326 1.604 1.395 1.07 2.093 2.488 2.093 4.256v.255h-4.535v-.162c0-.496-.245-.942-.733-1.337-.488-.396-1.174-.593-2.058-.593-.729 0-1.28.12-1.651.36-.372.24-.558.531-.558.872 0 .341.209.632.627.872.42.24 1.21.562 2.373.965.511.186.907.33 1.186.43.279.1.693.271 1.244.512.55.24.988.465 1.314.674.325.21.705.489 1.14.837.434.35.77.702 1.011 1.058.24.357.45.783.628 1.28a4.57 4.57 0 01.267 1.557c0 1.72-.666 3.05-2 3.988-1.333.938-3.07 1.407-5.209 1.407-2.248 0-4.093-.496-5.535-1.488-1.442-.993-2.163-2.357-2.163-4.093v-.21h4.535zM97.594 53.983v5.557h3.093c1.783 0 2.674-.938 2.674-2.813 0-.791-.217-1.446-.651-1.965-.434-.52-1.108-.78-2.023-.78h-3.093zm-4.651-4.232h8c2.279 0 4.034.67 5.267 2.011 1.233 1.34 1.849 2.988 1.849 4.941 0 2.031-.612 3.717-1.837 5.058-1.225 1.34-2.985 2.011-5.279 2.011h-3.35v4.116h-4.65V49.751zM120.478 62.307c.962.961 2.124 1.442 3.489 1.442 1.395 0 2.566-.477 3.511-1.43.946-.954 1.419-2.12 1.419-3.5s-.473-2.546-1.419-3.5c-.945-.953-2.116-1.43-3.511-1.43-1.365 0-2.527.481-3.489 1.442-.961.961-1.441 2.124-1.441 3.488 0 1.364.48 2.527 1.441 3.488zm-3.29-10.138c1.899-1.845 4.159-2.767 6.779-2.767 2.651 0 4.919.922 6.802 2.767 1.884 1.845 2.826 4.061 2.826 6.65 0 2.59-.942 4.806-2.826 6.65-1.883 1.845-4.151 2.768-6.802 2.768-2.62 0-4.88-.923-6.779-2.767-1.9-1.845-2.849-4.062-2.849-6.65 0-2.59.949-4.806 2.849-6.651zM145.503 53.983v4.836h3.976c.869 0 1.512-.225 1.931-.674.418-.45.627-1.023.627-1.72 0-1.628-.852-2.442-2.558-2.442h-3.976zm4.232-4.232c2.217 0 3.903.624 5.058 1.872 1.155 1.248 1.733 2.833 1.733 4.755 0 1.317-.302 2.515-.907 3.592-.605 1.078-1.496 1.888-2.674 2.43l3.93 5.488h-5.558l-3.442-4.86h-2.372v4.86h-4.628V49.751h8.86zM162.713 49.75h15.954v4.512h-5.652v13.626h-4.651V54.262h-5.651V49.75zM88.71 90.017c-.807 1.566-1.981 2.825-3.524 3.778-1.543.954-3.236 1.43-5.081 1.43-2.62 0-4.88-.922-6.78-2.766-1.899-1.845-2.848-4.062-2.848-6.65 0-2.59.95-4.806 2.849-6.651 1.899-1.845 4.159-2.767 6.779-2.767 1.845 0 3.53.472 5.058 1.418 1.527.946 2.702 2.194 3.523 3.744l-4.232 1.907a4.882 4.882 0 00-1.791-1.872 4.819 4.819 0 00-2.558-.71c-1.365 0-2.527.481-3.489 1.442-.96.961-1.442 2.124-1.442 3.488 0 1.364.481 2.527 1.442 3.488.962.961 2.124 1.442 3.489 1.442.945 0 1.802-.233 2.57-.698a4.779 4.779 0 001.779-1.883l4.256 1.86zM95.687 76.74h4.628v13.649h8.698v4.488H95.687V76.739zM132.107 76.74v10.208c0 2.418-.736 4.402-2.209 5.952-1.473 1.55-3.52 2.326-6.14 2.326-2.636 0-4.682-.772-6.14-2.314-1.457-1.542-2.186-3.53-2.186-5.964V76.739h4.652v9.93c0 1.317.31 2.325.93 3.022.62.698 1.535 1.047 2.744 1.047 1.209 0 2.132-.35 2.768-1.047.635-.697.953-1.705.953-3.023V76.74h4.628zM144.643 87.482v3.186h4.651c1.147 0 1.721-.543 1.721-1.628 0-1.038-.574-1.558-1.721-1.558h-4.651zm0-6.51v2.883h3.837c1.147 0 1.721-.48 1.721-1.442 0-.45-.124-.802-.372-1.058s-.613-.383-1.093-.383h-4.093zm-4.652-4.232h9.024c1.891 0 3.345.457 4.361 1.371 1.015.915 1.523 2.124 1.523 3.628 0 1.736-.737 3.007-2.21 3.813 2.016.76 3.024 2.163 3.024 4.21 0 1.518-.531 2.75-1.593 3.697-1.062.945-2.5 1.418-4.314 1.418h-9.815V76.74z" fill="#009FC3"/></svg>